<svg width="346" height="345" viewBox="0 0 346 345" fill="none" xmlns="http://www.w3.org/2000/svg">
<path d="M-81.7077 271.784C-83.1886 271.748 -83.0755 271.433 -81.1124 271.216C-80.6705 271.18 -80.2465 271.025 -79.8849 270.768C-75.571 272.863 -71.7176 275.798 -68.5506 279.4L-64.9542 281.761C-67.877 284.549 -76.6862 285.609 -75.7225 289.654C-74.3778 295.507 -85.3712 297.203 -89.0125 301.296C-90.2574 302.484 -96.9041 301.584 -98.3453 299.857C-102.125 295.432 -107.166 292.265 -112.792 290.78L-112.378 291.214C-115.618 291.719 -117.073 292.795 -114.367 294.764C-111.661 296.734 -110.183 299.151 -115.16 299.243C-124.808 299.966 -125.416 303.338 -123.766 307.452C-122.116 311.566 -123.941 312.687 -129.05 313.941C-130.541 314.328 -132.142 314.925 -129.102 316.162C-127.655 316.548 -126.168 316.761 -124.672 316.797C-118.975 317.114 -113.286 316.051 -108.089 313.7C-106.738 313.642 -105.391 313.873 -104.136 314.377C-103.088 314.825 -102.156 315.694 -102.328 316.272C-102.617 319.546 -110.373 320.843 -107.136 324.995C-110.053 325.045 -112.969 324.851 -115.854 324.415C-129.221 321.239 -135.656 322.62 -140.025 326.167C-143.45 330.091 -147.673 333.238 -152.413 335.397C-162.455 339.391 -166.898 343.837 -153.813 352.245C-152.625 353.491 -152.755 354.546 -155.653 354C-167.522 352.394 -169.365 354.255 -164.401 359.242C-162.232 361.516 -168.246 360.738 -171.004 360.99C-175.356 361.521 -177.395 362.743 -172.53 365.134C-165.362 368.639 -166.073 371.903 -168.295 374.125C-172.037 377.963 -176.161 381.411 -180.601 384.415C-182.333 386.067 -185.095 384.255 -186.647 382.737C-187.341 381.836 -188.342 381.221 -189.459 381.009C-190.576 380.797 -191.731 381.002 -192.706 381.586C-196.155 384.256 -195.954 384.684 -185.63 389.005C-178.816 391.813 -179.165 393.181 -183.898 394.179C-188.631 395.177 -197.591 393.588 -196.285 396.583C-194.271 400.97 -204.694 398.605 -207.383 400.445C-210.072 402.286 -208.345 405.396 -203.814 408.521C-207.866 409.8 -211.964 410.814 -215.969 412.358C-221.251 414.19 -222.053 416.817 -217.021 421.118C-216.205 421.899 -215.575 422.855 -215.181 423.914C-212.16 425.997 -211.152 428.137 -213.87 428.972C-217.464 430.299 -221.15 431.361 -224.899 432.149C-229.261 433.104 -231.886 434.47 -230.312 437.312L-231.207 437.131C-219.248 439.374 -218.77 439.333 -222.148 443.486C-222.094 447.985 -225.063 448.232 -237.321 445.135L-236.534 445.418C-240.874 447.696 -244.266 450.208 -243.878 453.975L-240.901 453.41L-243.666 453.98C-247.354 453.257 -251.425 453.106 -253.7 450.829C-255.975 448.552 -254.883 447.097 -259.569 446.085C-264.255 445.074 -264.735 447.497 -265.513 449.066C-267.57 453.303 -269.838 457.535 -271.79 461.775C-272.294 462.98 -275.436 463.805 -270.152 466.418L-261.241 461.022C-260.613 459.654 -259.838 458.359 -258.929 457.161C-257.689 457.126 -256.449 457.226 -255.231 457.46C-254.715 458.002 -253.889 458.869 -254.27 459.336C-255.461 460.472 -258.486 460.876 -261.979 460.899C-255.57 465.126 -257.053 467.472 -262.169 469.043C-265.018 469.649 -267.912 470.022 -270.822 470.16C-278.573 471.245 -278.997 471.235 -274.616 476.261C-272.55 478.427 -273.098 479.26 -277.539 479.048C-281.979 478.836 -281.893 479.685 -282.555 480.833C-289.395 492.736 -296.605 504.576 -303.024 516.594C-306.143 521.992 -308.321 527.881 -309.465 534.009C-310.232 539.322 -311.779 544.492 -314.057 549.352C-319.001 558.908 -323.027 568.911 -326.081 579.228C-328.771 590.171 -333.301 600.594 -336.781 611.36C-337.697 614.301 -339.397 616.853 -345.608 617.71C-343.077 620.364 -343.538 621.94 -347.629 622.637C-343.664 625.06 -341.868 627.483 -342.13 629.594C-342.308 631.985 -343.205 634.267 -344.703 636.139C-346.201 638.011 -348.231 639.385 -350.525 640.083C-355.119 632.882 -354.278 626.394 -348.433 623.093C-347.898 622.94 -347.344 622.864 -346.787 622.868C-349.525 619.998 -349.122 618.579 -344.819 617.888C-348.275 616.324 -350.513 614.736 -349.998 613.107C-346.696 603.132 -343.871 593.198 -340.41 583.279C-339.165 580.559 -338.057 577.776 -337.093 574.944C-335.106 566.27 -332.484 557.754 -329.247 549.466C-324.138 536.94 -318.665 524.688 -312.514 512.822C-309.616 505.278 -306.298 497.902 -302.577 490.728C-297.669 483.685 -293.287 476.291 -289.465 468.604C-284.504 457.709 -278.371 447.386 -271.177 437.818C-263.972 428.465 -258.605 418.485 -252.038 409.222C-248.043 403.549 -243.103 398.217 -238.74 392.712L-229.464 380.762C-220.784 369.38 -212.367 357.939 -203.263 346.567C-196.957 338.501 -190.077 330.901 -182.675 323.827C-174.719 316.238 -169.759 307.783 -161.118 300.369C-157.546 296.962 -155.713 293.249 -152.195 289.893C-143.612 280.84 -134.58 272.224 -125.131 264.08C-115.426 256.374 -110.03 247.4 -100.526 239.266C-83.3583 224.752 -67.8685 209.564 -51.3232 194.506C-39.049 183.316 -25.8252 172.255 -12.7564 161.03L36.556 118.338C41.5898 113.536 47.7214 109.343 52.9667 104.547C68.1538 90.9917 86.0411 77.3425 91.5096 60.7508C92.4592 59.0486 93.7563 57.5654 95.3161 56.3967C100.079 51.8535 105.113 47.0522 109.409 42.1275C113.705 37.2027 118.532 32.1848 116.447 26.314C110.023 30.5933 104.07 35.5422 98.6907 41.0778C98.3117 41.7034 97.8043 42.2415 97.2016 42.656C96.5989 43.0704 95.9152 43.3514 95.1953 43.4814C92.3159 43.932 89.6227 45.1861 87.4249 47.0995C85.2271 49.0129 83.6135 51.5085 82.7708 54.2983C80.021 58.7723 76.7061 62.8728 72.9075 66.4986C59.3219 79.457 44.6926 91.7551 30.2855 103.636C15.8784 115.516 0.743856 126.849 -12.9154 138.43C-19.2849 143.781 -21.7111 150.233 -32.8083 154.096C-33.9818 154.491 -32.9568 155.891 -33.4513 156.673C-34.5103 158.736 -35.8944 160.615 -37.5504 162.238C-51.158 173.873 -65.078 185.289 -78.7298 196.552C-88.6593 204.782 -99.0045 212.684 -107.881 221.151C-112.721 226.874 -118.031 232.182 -123.757 237.018C-128.604 240.453 -132.925 244.575 -136.585 249.254C-141.998 256.008 -147.857 262.392 -154.125 268.362C-164.95 278.687 -176.803 289.994 -187.319 300.644C-195.349 309.131 -205.795 316.819 -209.513 326.467C-211.374 331.344 -218.336 334.883 -221.832 339.562C-233.932 354.62 -245.609 369.687 -257.286 384.755C-262.471 391.093 -267.307 397.709 -271.774 404.572C-280.445 417.994 -290.341 430.583 -301.335 442.178C-304.561 445.568 -307.193 449.476 -309.12 453.74C-313.107 463.541 -314.048 474.367 -322.61 482.947C-325.262 485.476 -329.496 487.758 -329.939 490.869C-331.2 499.518 -338.606 506.167 -343.596 513.616C-347.326 519.242 -356.969 519.752 -371.455 516.92C-373.314 514.97 -370.885 515.24 -369.815 514.736C-362.956 511.09 -356.164 508.024 -365.779 500.545C-366.039 495.829 -368.348 490.482 -354.954 490.219C-350.135 490.07 -349.41 488.446 -353.057 486.031C-357.903 482.793 -360.64 479.923 -357.569 477.615L-356.605 474.833C-355.035 473.336 -350.541 473.497 -346.935 473.159C-344.92 472.996 -343.948 472.172 -346.514 470.999C-349.079 469.827 -354.818 468.579 -354.565 466.786C-354.311 464.992 -352.075 464.411 -348.791 464.277C-347.411 464.099 -346.382 463.118 -346.788 462.367C-348.876 458.878 -344.369 458.509 -338.391 458.599C-334.741 458.633 -331.914 457.695 -332.932 455.977C-336.397 450.285 -330.449 447.093 -327.708 443.031C-326.008 440.479 -323.887 438.042 -322.29 435.382C-321.424 434.556 -322.543 432.624 -326.604 432.051C-333.514 431.092 -334.963 429.681 -333.699 427.648C-329.6 422.083 -326.29 416.342 -322.874 410.602C-317.481 401.735 -310.826 393.215 -304.382 384.69C-302.413 381.985 -299.403 379.94 -289.548 381.71C-287.175 382.031 -283.351 381.487 -283.174 380.697C-282.487 376.215 -276.745 372.807 -284.011 366.707C-289.717 361.809 -288.335 361.524 -277.482 361.306C-271.182 361.192 -271.074 361.089 -275.496 357.861C-276.942 356.345 -279.193 355.287 -281.067 353.972L-277.365 354.06L-281.173 353.969C-272.814 356.338 -266.163 357.025 -263.289 354.077C-260.415 351.13 -258.526 349.535 -256.824 346.877C-256.689 346.647 -256.606 346.391 -256.579 346.127C-256.551 345.862 -256.581 345.594 -256.665 345.342C-256.749 345.089 -256.886 344.858 -257.067 344.662C-257.248 344.467 -257.468 344.313 -257.713 344.21C-267.341 339.535 -259.873 339.237 -255.292 337.97C-253.587 337.482 -254.133 335.934 -253.631 334.834L-257.092 335.758L-253.703 335.627C-251.28 336.325 -248.697 336.218 -246.34 335.326C-243.919 333.637 -245.744 332.482 -253.075 331.408C-254.814 331.102 -257.03 330.838 -256.648 330.37C-254.513 327.299 -258.096 322.134 -245.673 322.695C-238.96 323.013 -236.852 321.106 -237.322 318.555L-241.39 318.299C-242.065 318.245 -242.725 318.068 -243.336 317.776C-244.111 316.964 -243.368 316.875 -241.371 317.452L-237.435 318.869C-234.02 317.68 -234.188 315.771 -235.72 313.406C-225.413 311.641 -221.982 307.543 -220.599 302.708C-220.013 300.287 -213.253 298.596 -223.479 294.595C-226.73 293.353 -226.216 291.725 -225.86 290.04C-225.47 286.98 -221.46 285.224 -216.191 283.921L-216.461 284.179C-214.623 280.254 -215.57 275.469 -206.532 273.674L-206.206 273.364L-207.421 273.282C-203.43 276.817 -206.719 279.437 -205.153 282.597L-205.618 282.109C-195.645 281.077 -196.751 276.341 -193.914 272.704C-193.427 272.24 -195.619 270.917 -196.652 269.834C-197.685 268.751 -200.258 267.896 -200.61 267.094C-201.802 263.785 -196.894 262.103 -194.722 259.72C-192.549 257.338 -187.435 258.148 -181.893 258.757C-176.351 259.365 -174.427 258.564 -173.02 257.222C-168.365 252.782 -167.808 247.08 -161.102 243.165C-160.127 242.236 -157.731 241.605 -161.719 240.134C-167.686 239.622 -168.814 242.558 -177.416 241.559C-174.331 238.616 -172.004 236.396 -168.884 234.248C-165.82 232.524 -162.247 231.935 -158.791 232.584L-159.686 232.404C-145.553 232.264 -140.168 228.266 -136.357 223.7C-130.918 217.284 -124.706 211.566 -117.861 206.678C-111.439 201.94 -105.279 196.858 -99.4067 191.454C-97.8912 190.009 -97.9555 188.208 -97.2295 186.585C-92.344 184.055 -87.7907 180.929 -83.6757 177.278C-74.4201 168.45 -64.4807 159.796 -53.9633 151.316C-40.6438 141.854 -28.3177 131.066 -17.1731 119.119C-14.2355 116.346 -10.9614 113.954 -7.428 111.996C-4.63324 110.158 -1.20645 108.441 1.16767 106.487C11.4859 97.472 21.2309 88.0732 31.4017 78.579C33.0111 76.6321 34.9912 75.0243 37.2273 73.8493C40.9182 72.6806 44.3179 70.738 47.198 68.1513C50.0783 65.5646 52.3733 62.3937 53.9304 58.8491C54.7504 57.2108 55.9008 55.7603 57.3103 54.5901C58.8799 53.0929 64.6344 51.4307 61.2326 49.8149C55.6809 47.3541 52.5859 50.7201 47.9734 51.0864C47.2305 51.1745 46.6967 51.3732 46.0055 51.5155L46.9029 51.5899C48.244 48.5526 47.7452 44.9952 51.0862 42.429C64.5377 31.2642 77.086 19.0538 88.6131 5.9115C89.2085 5.34363 90.0745 4.51761 90.6158 4.00131C91.157 3.48509 94.0034 1.70076 88.6852 0.568412C85.6687 2.19932 82.7928 4.07764 80.0871 6.18416C70.8158 16.1519 60.3753 24.9649 48.9921 32.431C37.7576 40.1801 26.9459 48.5241 16.6035 57.4287C4.90019 66.8335 -5.85352 76.3674 -16.3907 85.6942C-33.145 100.641 -50.5187 114.937 -67.1966 128.88L-102.167 157.891C-112.47 166.271 -119.251 175.635 -132.231 183.051C-143.867 189.6 -149.191 197.781 -158.884 204.958C-165.412 210.157 -171.462 215.928 -176.963 222.202C-184.27 229.172 -195.938 234.82 -199.046 243.266C-199.447 244.579 -201.536 245.64 -203.463 246.546C-206.186 248.062 -208.477 250.248 -210.12 252.896C-212.481 256.398 -215.256 259.602 -218.387 262.437C-227.873 270.567 -236.666 279.473 -244.675 289.062C-249.364 294.983 -258.418 299.689 -260.165 306.526C-260.342 307.316 -261.681 307.972 -262.384 308.643C-268.245 314.853 -274.578 320.893 -279.914 327.328C-286.614 335.476 -292.315 343.914 -298.542 352.232C-303.128 358.261 -307.752 363.601 -311.804 369.431C-320.236 381.507 -328.357 393.908 -337.161 406.028C-341.208 411.646 -347.521 416.84 -350.983 422.314C-358.451 433.883 -365.287 445.574 -371.812 457.589C-377.676 468.457 -382.752 479.607 -387.617 490.762C-390.809 498.253 -392.519 505.781 -395.448 513.331C-398.376 520.881 -403.277 526.797 -402.1 535.292C-401.852 536.047 -401.851 536.861 -402.097 537.616C-402.343 538.371 -402.824 539.028 -403.469 539.492C-405.477 540.98 -407.08 542.948 -408.131 545.216C-409.182 547.483 -409.649 549.978 -409.487 552.473C-410.198 556.01 -411.512 559.397 -413.373 562.487C-418.351 572.603 -422.034 583.308 -424.332 594.347C-425.5 600.233 -427.357 605.962 -429.865 611.414C-434.934 620.679 -437.681 631.036 -437.874 641.598C-437.747 643.429 -438.298 645.243 -439.422 646.694C-447.836 658.029 -446.518 671.766 -450.05 684.753C-452.551 694.377 -453.155 704.364 -455.235 714.104C-456.385 717.312 -457.989 720.339 -459.996 723.093C-455.175 727.389 -457.727 730.132 -461.07 732.804C-461.395 733.114 -463.503 732.746 -464.875 732.608C-465.444 732.414 -465.961 732.095 -466.388 731.672C-469.352 727.156 -468.847 723.675 -459.317 723.479C-466.03 720.885 -471.579 718.318 -471.077 714.943C-468.198 693.686 -467.791 671.788 -461.756 651.347C-461.017 644.765 -459.036 638.384 -455.919 632.541C-452.393 627.582 -450.464 621.666 -450.389 615.581C-449.819 608.132 -448.222 600.797 -445.645 593.785C-440.818 583.185 -437.628 571.914 -436.184 560.355C-436.022 557.563 -434.893 554.915 -432.992 552.864C-420.09 537.455 -416.857 519.171 -406.482 503.172C-407.371 493.679 -400.747 486.533 -398.274 478.072C-395.028 467.034 -391.206 456.174 -386.823 445.537C-383.107 437.405 -378.206 429.871 -372.277 423.181C-363.562 412.594 -352.324 402.702 -349.601 390.384C-349.382 389.801 -349.045 389.268 -348.612 388.82C-338.851 374.103 -327.907 360.206 -315.889 347.266C-313.72 344.775 -312.34 341.695 -311.924 338.418C-310.829 333.626 -308.31 329.278 -304.7 325.943C-296.96 318.56 -293.852 310.114 -283.859 303.685C-282.655 292.919 -268.78 285.682 -262.001 276.425C-251.293 262.075 -234.126 249.837 -222.946 235.657C-216.711 229.22 -210.083 223.175 -203.101 217.557C-194.441 209.296 -185.672 200.933 -177.283 192.931C-176.579 192.259 -176.346 191.312 -179.401 190.71C-180.705 190.538 -182.028 190.578 -183.319 190.829C-185.972 191.478 -188.761 191.282 -191.297 190.267C-191.826 190.072 -192.27 189.696 -192.549 189.205C-192.828 188.714 -192.925 188.14 -192.822 187.585C-191.611 183.328 -190.548 183.141 -177.115 185.737C-171.267 186.882 -167.922 186.38 -165.833 185.318C-162.711 183.054 -159.908 180.38 -157.498 177.368C-155.496 175.458 -149.274 174.178 -152.793 170.813C-162.559 169.786 -158.845 173.896 -162.737 175.126C-165.19 175.915 -166.383 177.156 -168.73 177.947C-170.988 178.576 -173.301 178.981 -175.638 179.158C-177.059 179.253 -178.486 179.111 -179.862 178.739C-180.963 178.342 -182.213 177.466 -181.773 176.736C-181.33 175.305 -180.556 174.001 -179.514 172.927L-162.233 155.823C-158.498 152.261 -158.886 148.495 -169.633 144.164C-183.296 146.854 -182.932 147.128 -187.896 151.243C-190.184 153.293 -192.734 155.029 -195.479 156.406C-205.585 160.874 -216.32 165.116 -226.53 169.477C-229.157 170.354 -231.571 171.776 -233.613 173.647C-238.289 177.795 -243.67 181.072 -249.503 183.322C-252.019 184.429 -254.397 185.829 -256.586 187.493C-269.33 198.407 -282.174 209.108 -294.178 220.04C-298.978 224.545 -304.373 228.369 -310.213 231.406C-315.901 233.957 -321.036 237.59 -325.333 242.104C-326.203 243.16 -327.298 244.007 -328.539 244.582C-329.78 245.156 -331.135 245.445 -332.503 245.426C-333.959 245.541 -335.424 245.399 -336.832 245.005C-337.957 244.696 -338.995 244.127 -339.862 243.345C-340.364 242.169 -340.757 240.889 -340.1 239.952C-337.418 236.153 -333.952 232.744 -331.695 229.041C-329.439 225.338 -322.312 221.538 -329.049 215.451L-328.362 215.52C-332.55 216.839 -336.197 219.482 -338.752 223.051C-339.839 224.287 -341.222 225.227 -342.771 225.782C-344.32 226.337 -345.986 226.49 -347.611 226.227C-364.309 225.193 -365.116 230.307 -369.075 234.393C-370.699 235.942 -370.225 238.282 -372.269 239.715C-381.024 246.012 -388.119 254.342 -392.945 263.987C-395.155 267.956 -407.962 267.968 -405.962 272.99C-403.963 278.012 -406.686 281.334 -409.787 284.911C-414.956 291.647 -420.986 297.676 -427.722 302.846C-431.757 305.66 -438.842 307.661 -438.626 312.005L-430.786 313.938L-429.037 313.822L-430.728 313.675L-438.513 311.69C-439.92 313.032 -441.895 313.779 -446.783 312.339C-450.148 311.412 -451.28 310.01 -451.093 308.797C-451.033 306.533 -450.34 304.331 -449.092 302.442C-446.046 298.916 -442.001 295.679 -438.267 292.116L-437.996 291.858L-441.591 289.497C-444.587 286.356 -443.47 283.843 -439.096 282.36C-437.703 281.652 -436.985 280.346 -434.761 280.293C-428.038 280.189 -427.628 278.452 -430.523 275.526C-431.039 274.984 -429.765 274.803 -429.853 274.06C-429.408 270.843 -429.408 270.843 -417.945 271.699C-415.713 267.392 -412.213 263.874 -407.918 261.619C-405.443 259.879 -404.346 258.211 -410.149 255.162C-412.136 254.162 -412.215 252.996 -409.682 253.269C-403.5 253.681 -402.298 252.121 -400.987 250.353C-399.486 248.926 -397.803 247.703 -395.981 246.716C-403.527 243.572 -406.678 240.27 -404.065 237.157C-402.387 235.557 -402.025 233.66 -394.338 235.325C-392.548 235.685 -389 235.611 -388.83 235.139C-388.026 232.406 -378.481 231.575 -386.052 227.214C-387.722 226.222 -387.122 225.443 -386.101 224.779C-382.683 221.565 -378.268 219.616 -373.589 219.257C-370.465 218.846 -367.482 217.702 -364.885 215.919C-363.493 215.211 -361.776 214.194 -362.599 213.222C-364.459 211.273 -368.902 211.166 -372.542 210.709C-378.362 209.998 -383.855 207.625 -388.363 203.876C-390.766 202.286 -393.511 201.288 -396.372 200.962C-399.234 200.637 -402.132 200.992 -404.83 202C-409.809 206.415 -415.467 209.997 -421.588 212.608C-422.065 212.711 -422.489 212.985 -422.78 213.377C-423.071 213.769 -423.211 214.253 -423.173 214.74C-422.035 220.376 -429.051 223.966 -434.854 227.744C-438.294 229.99 -440.732 232.419 -439.279 235.894C-437.825 239.368 -440.252 243.543 -443.659 246.689C-445.337 248.29 -448.333 249.7 -447.689 251.568C-445.461 258.13 -454.165 261.468 -461.019 264.902C-463.744 265.779 -466.254 267.218 -468.386 269.127C-470.518 271.036 -472.226 273.373 -473.397 275.985C-473.977 277.963 -474.996 279.783 -476.378 281.311C-484.096 290.841 -490.777 301.166 -496.308 312.111C-500.608 318.665 -502.163 326.647 -500.639 334.339C-500.152 336.149 -501.193 337.66 -501.495 339.293C-502.223 341.161 -502.645 343.134 -502.744 345.137C-502.43 349.295 -503.409 353.447 -505.549 357.025C-507.688 360.603 -510.884 363.43 -514.695 365.119C-518.718 367.115 -522.159 370.113 -524.688 373.824C-527.469 379.579 -531.723 384.981 -534.398 390.738C-537.693 398.121 -540.42 406.099 -543.405 413.807C-543.514 414.405 -543.492 415.019 -543.341 415.607C-540.541 429.38 -549.251 439.756 -554.177 451.281C-556.712 456.131 -558.51 461.331 -559.512 466.711C-559.83 468.979 -558.997 471.804 -561.413 473.281C-568.397 477.771 -567.808 484.241 -569.954 490.01C-570.409 491.375 -570.131 493.076 -571.74 493.99C-576.458 496.629 -575.861 500.506 -577.64 504.168C-582.663 515.267 -587.68 526.154 -592.39 537.472C-597.1 548.79 -605.542 559.013 -607.044 571.202C-608.45 581.54 -611.224 591.529 -600.511 604.061C-599.735 604.863 -599.304 605.938 -599.311 607.054C-600.001 616.192 -593.417 626.562 -586.986 636.664C-580.412 648.79 -572.157 659.926 -562.466 669.741C-549.932 681.364 -545.041 691.694 -546.437 701.609C-547.434 709.205 -546.12 716.925 -542.669 723.766C-536.597 735.211 -532.64 747.657 -530.988 760.505C-530.278 770.894 -520.027 782.834 -521.748 793.059C-521.947 794.8 -519.78 797.18 -518.295 799.28C-513.888 805.418 -509.318 811.401 -505.432 817.209C-498.475 827.429 -491.884 837.482 -497.634 845.759C-498.33 846.695 -498.765 847.798 -498.895 848.957C-499.024 850.117 -498.843 851.29 -498.371 852.356C-495.625 859.419 -494.117 866.902 -493.914 874.477C-491.815 882.858 -490.79 891.47 -490.862 900.109C-492.298 909.441 -484.655 919.731 -474.942 929.806C-465.229 939.88 -423.63 964.526 -404.715 972.545C-383.962 980.624 -362.715 987.371 -341.104 992.744C-326.907 997.191 -312.331 1000.32 -297.561 1002.09C-291.363 1002.7 -285.216 1003.75 -279.166 1005.23C-261.733 1008.7 -244.128 1011.24 -226.426 1012.84C-169.199 1018.65 -113.145 1022.58 -58.3433 1025.74L59.933 1032.26C76.5792 1033.24 91.0979 1032.43 107.073 1032.7C132.014 1032.88 156.947 1031.74 181.767 1029.3C191.667 1028.69 201.419 1026.61 210.698 1023.11C215.426 1021.43 220.312 1020.23 225.281 1019.54C233.488 1018.38 241.574 1016.49 249.439 1013.87C267.216 1007.96 283.252 997.746 296.12 984.134C302.875 976.99 307.183 967.883 308.423 958.127C308.745 948.927 308.519 939.715 307.746 930.541C306.931 919.897 309.24 909.249 314.39 899.901C321.713 887.746 325.456 874.765 331.827 862.587C335.197 856.348 336.772 849.296 336.378 842.215C335.514 831.664 337.442 821.655 336.472 811.102C335.428 799.17 333.867 786.697 331.724 774.263C329.581 761.829 327.184 751.189 325.808 739.884C324.432 728.58 324.951 720.019 324.386 710.216C323.822 700.412 322.045 692.697 322.299 684.078C322.808 671.389 324.369 658.938 325.93 646.486C325.859 637.019 326.399 627.558 327.546 618.161C328.628 615.534 329.119 612.702 328.985 609.863C328.85 607.025 328.093 604.251 326.767 601.737C324.731 598.556 323.377 594.988 322.791 591.258C322.204 587.528 322.397 583.717 323.358 580.066C323.831 577.961 325.312 575.72 321.455 573.193C314.526 568.53 316.043 564.809 315.076 560.87C313.967 553.737 310.484 547.185 305.192 542.272C303.273 540.894 301.749 539.038 300.769 536.889C299.789 534.74 299.388 532.372 299.605 530.02C300.145 527.334 299.67 524.994 292.271 522.331C290.877 521.993 289.567 521.373 288.422 520.508C287.277 519.644 286.321 518.553 285.615 517.304C283.724 512.179 279.833 506.582 280.786 502.053C282.251 492.937 285.006 484.076 288.97 475.737C293.108 468.48 306.193 463.342 298.493 453.209C298.234 452.939 298.871 452.848 299.142 452.59C300.495 451.299 306.414 451.652 304.452 449.595C302.489 447.537 296.238 447.811 292.135 446.761C289.425 446.074 286.789 445.125 284.263 443.927C273.187 437.842 267.397 431.988 271.295 425.995C275.892 420.762 278.519 414.087 278.721 407.122C277.997 397.529 274.622 388.325 268.972 380.536C267.96 379.533 267.31 378.222 267.123 376.81C266.935 375.398 267.222 373.964 267.938 372.733C271.92 364.756 276.818 357.272 282.535 350.432C285.335 347.293 287.695 343.789 289.553 340.016C291.263 337.04 287.739 333.887 281.774 330.993C279.034 329.788 276.21 328.783 273.325 327.987C266.236 325.648 264.71 322.965 265.732 320.026C266.298 318.02 267.36 316.189 268.82 314.702C274.304 308.747 279.948 302.744 285.643 296.795C290.623 292.045 294.606 286.901 289.154 280.209C294.16 278.847 301.264 280.55 304.01 278.552C309.607 274.558 318.554 272.125 322.692 267.144C324.586 265.337 326.806 263.221 326.23 260.667C326.174 259.654 325.758 258.694 325.058 257.959C324.357 257.225 323.418 256.765 322.408 256.66C320.365 256.375 318.289 256.433 316.266 256.831C312.333 257.451 308.688 259.267 305.825 262.033C304.634 263.168 303.552 264.201 302.361 265.337C301.037 266.299 299.488 266.905 297.862 267.098C296.236 267.291 294.588 267.064 293.075 266.438C289.343 265.344 289.803 263.767 290.57 262.621L315.124 224.206C316.66 221.914 318.827 219.743 316.073 215.338C308.645 220.664 302.357 224.801 296.595 229.056C293.845 231.369 291.242 233.852 288.801 236.49C287.213 238.424 285.395 240.158 283.388 241.653C280.705 242.58 277.797 242.64 275.077 241.825C271.498 240.998 270.369 239.49 270.612 238.119C270.603 237.249 270.772 236.386 271.109 235.584C271.446 234.782 271.945 234.058 272.574 233.456C285.394 223.814 286.953 211.468 298.268 200.573C301.028 197.94 302.854 194.544 298.643 191.321C290.585 185.149 294.391 180.794 298.414 176.233C309.035 163.922 320.279 152.163 332.1 141.001C332.744 140.492 333.281 139.861 333.679 139.144C334.077 138.426 334.329 137.637 334.421 136.822C333.6 128.917 340.258 122.567 345.494 115.918C336.331 118.57 328.332 124.234 322.786 131.994C317.987 137.681 311.375 141.54 304.062 142.924C302.712 143.192 301.318 143.14 299.991 142.774C298.941 142.431 297.748 141.397 298.08 140.77C299.626 135.722 302.224 131.059 305.703 127.088C311.775 120.494 317.401 113.505 322.544 106.164C323.735 105.028 323.782 103.018 319.238 102.698C317.108 102.372 314.932 102.538 312.876 103.181C310.047 104.871 307.542 107.051 305.477 109.619C299.011 119.096 287.128 127.121 284.243 137.318C283.366 140.103 281.43 142.432 278.853 143.804C270.624 149.835 263.003 156.655 256.097 164.164C250.915 167.843 246.104 172.017 241.73 176.627C235.138 184.869 227.785 192.473 219.767 199.335C211.559 206.336 202.988 213.063 195.31 220.077C184.485 230.402 167.463 238.675 158.369 249.624C146.312 262.548 133.37 274.616 119.635 285.742C117.124 287.682 115.063 290.142 113.593 292.954C112.357 295.994 105.931 296.951 103.906 299.814C97.141 309.082 89.7206 317.853 81.7016 326.06C79.3275 327.991 76.5966 329.437 73.6644 330.314C71.5912 330.575 69.4867 330.398 67.4855 329.796C65.7514 329.278 63.6681 327.852 63.6855 327.112C63.9475 325.541 64.7044 324.094 65.846 322.983C69.4356 318.836 72.9216 314.579 76.986 310.496C79.5119 307.919 82.4832 305.82 85.7566 304.302C87.5304 303.789 89.1322 302.807 90.3934 301.458C91.6544 300.11 92.5277 298.446 92.9207 296.641C92.8673 294.383 93.6395 292.183 95.0926 290.454C96.5457 288.726 98.5797 287.587 100.813 287.251C101.522 287.096 102.175 286.749 102.7 286.248C103.225 285.748 103.602 285.112 103.791 284.411C106.605 280.43 109.737 276.683 113.154 273.205C118.486 264.707 132.696 259.012 134.142 249.257C134.332 248.456 134.75 247.728 135.346 247.16C135.941 246.592 136.689 246.209 137.498 246.056C140.036 245.742 142.464 244.826 144.577 243.386C146.691 241.945 148.43 240.022 149.651 237.774C157.61 227.804 170.723 219.226 177.531 208.699C179.378 206.955 181.482 205.506 183.77 204.402C185.881 202.389 188.56 200.971 190.666 199.169C199.272 190.961 207.986 182.649 216.646 174.389C220.685 169.389 225.245 164.832 230.247 160.796C236.99 156.149 243.31 150.916 249.134 145.159L257.686 137.002C260.555 134.266 263.532 131.426 266.563 128.535C279.282 116.403 289.593 103.155 307.267 91.8817C311.571 82.0887 322.595 74.5727 332.936 64.6062C333.477 64.0899 333.084 62.8109 332.25 62.2618C331.042 61.5442 329.657 61.1802 328.253 61.213C314.886 62.5874 303.447 65.225 297.667 72.4957C295.379 75.2987 292.254 77.659 289.602 80.1887L261.449 109.627L245.078 126.276L236.742 134.227L228.623 141.971C216.531 152.213 205.055 163.159 194.253 174.754C191.28 177.953 188.117 180.97 184.781 183.788C176.147 190.662 168.03 198.163 160.496 206.229C153.388 216.008 139.665 223.512 130.934 232.564C130.01 233.457 128.913 234.153 127.71 234.606C126.507 235.06 125.224 235.263 123.94 235.203C121.896 235.392 119.859 234.773 118.265 233.479C116.561 231.692 118.182 230.249 119.902 229.126C131.627 221.044 136.258 210.836 147.253 202.314C161.532 190.52 175.032 177.814 187.672 164.278C191.677 160.457 196.317 156.652 200.013 152.507C206.867 144.018 215.127 136.77 224.433 131.076C226.353 130.081 227.95 128.558 229.035 126.687C235.639 113.562 251.925 102.785 260.906 89.8757C263.477 86.2857 276.316 82.6234 257.993 78.6935C257.097 78.5135 256.876 76.6564 257.267 75.7661C258.099 74.2271 259.27 72.8971 260.692 71.8783C268.757 64.1859 272.883 55.1824 268.769 45.559C267.766 43.2066 269.651 41.8227 271.806 40.1807C272.39 39.8357 272.878 39.3487 273.225 38.765C273.572 38.1813 273.766 37.5197 273.789 36.8412C273.61 35.5088 273.014 34.2671 272.086 33.2942C271.158 32.3213 269.946 31.6673 268.624 31.4261C266.981 30.9087 265.236 30.8109 263.546 31.1402C261.856 31.4696 260.276 32.2159 258.949 33.3122C257.044 34.9237 255.236 36.6476 253.536 38.4748C246.343 46.0813 237.91 52.4114 228.597 57.1951C220.769 61.5592 215.4 67.0935 207.484 70.7147C199.567 74.3359 211.273 80.6479 201.268 83.055C195.001 84.4451 189.449 88.0523 185.632 93.2126C179.44 100.117 172.256 106.063 164.316 110.855C162.533 112.059 160.563 112.959 158.486 113.52C154.759 114.182 150.925 113.89 147.34 112.672C144.349 111.596 142.16 110.168 143.777 108.936C147.762 105.962 145.487 101.41 151.782 99.2316C157.496 96.9696 162.375 93.003 165.754 87.8703C168.713 85.0843 171.905 82.5574 175.297 80.3185C181.067 75.7069 185.249 69.405 187.255 62.295C187.255 62.295 186.686 61.699 186.273 61.2658C185.808 60.8396 185.224 60.5668 184.598 60.4849C183.216 60.2543 181.806 60.2386 180.419 60.4381C177.741 61.3766 175.485 63.2358 174.052 65.684C172.263 68.9634 169.621 71.6974 166.405 73.5975C160.275 76.298 154.997 80.6178 151.137 86.0927C148.142 89.9226 144.326 93.0322 139.97 95.1928C134.88 97.8761 130.484 100.312 132.238 104.534C133.042 106.352 129.895 107.389 126.075 107.827C122.254 108.265 116.461 109.343 114.823 111.526C109.471 118.596 103.236 124.956 97.2084 131.532C95.3328 134.445 92.7912 136.869 89.7932 138.605C87.8583 139.401 86.155 140.671 84.8388 142.297C80.7825 147.295 75.7755 151.438 70.107 154.488C64.2494 158.317 59.1297 162.27 60.536 167.754C61.1137 170.202 58.8007 171.786 54.1243 172.627C49.4479 173.468 47.313 174.264 43.96 175.084C47.9717 177.772 48.7629 180.12 44.5931 181.925C40.5743 182.994 36.7845 184.786 33.4097 187.214C31.786 188.763 31.6383 190.56 35.5074 192.557L43.3568 194.067C47.3052 192.68 51.0936 191.341 55.3052 190.013C56.6562 189.92 58.0134 190.06 59.3173 190.426C60.0404 191.184 60.9181 192.105 60.9181 192.105C52.8781 198.739 50.9413 206.895 41.6394 213.182C34.6014 218.656 27.9063 224.559 21.5928 230.855C19.4284 232.287 17.1321 233.508 14.7345 234.502C14.2392 235.952 13.5102 237.31 12.5765 238.525C12.2517 238.834 10.2916 238.947 9.07893 238.759C7.86618 238.571 6.30179 237.581 6.415 237.266C6.91916 235.866 7.58932 234.532 8.41232 233.292C11.0121 227.201 15.4878 222.098 21.1888 218.727C23.4726 216.903 25.5919 214.882 27.5218 212.687C30.6189 206.602 35.3807 201.522 41.2529 198.038C43.0391 196.335 44.5005 194.941 43.3815 193.01L35.5322 191.5C34.5107 192.355 33.3252 192.993 32.0485 193.374C23.5369 195.288 16.5603 197.185 17.236 202.229C17.3686 203.343 16.1215 204.636 14.1511 205.171C8.08469 206.614 12.7039 210.481 9.43194 212.361C5.2739 214.475 1.00797 216.369 -3.3483 218.036C-5.9166 219.245 -6.59569 221.133 -5.95145 223.001C-5.30724 224.868 -5.07905 226.409 -8.37048 226.86C-10.7692 227.033 -13.0671 227.893 -14.9877 229.34C-16.9083 230.787 -18.37 232.757 -19.1979 235.015C-21.4057 238.725 -24.955 241.445 -29.1123 242.61C-31.807 243.369 -34.6885 243.092 -37.1907 241.835C-38.6026 241.113 -39.4117 239.507 -39.0869 239.198C-35.0275 235.325 -30.2814 231.522 -26.5835 227.271C-20.0343 221.025 -14.5257 214.012 -8.54709 207.275C-7.46453 206.243 -8.01541 204.907 -11.8011 203.864C-14.319 203.111 -17.0219 203.271 -19.4321 204.317C-19.9911 204.667 -20.4697 205.131 -20.838 205.678C-21.2063 206.225 -21.4563 206.844 -21.5704 207.494C-21.4829 208.586 -21.8189 209.669 -22.5087 210.52C-23.1986 211.37 -24.189 211.923 -25.2754 212.063C-32.3528 214.106 -38.6814 218.165 -43.488 223.746C-48.662 226.805 -52.9567 231.15 -55.9546 236.36C-56.8602 238.879 -61.1675 239.782 -64.5354 241.236C-66.3534 242.04 -66.5917 243.197 -64.1911 244.631C-61.6958 246.864 -58.7878 248.587 -55.6312 249.704C-54.1405 249.316 -52.8585 248.817 -51.316 248.484C-44.9889 247.206 -43.5703 247.611 -40.1787 251.925C-39.9224 252.088 -39.7098 252.311 -39.559 252.575L-42.9587 253.129C-43.6128 251.684 -40.5678 252.709 -39.1902 252.636C-44.5084 251.503 -49.8779 250.317 -55.2502 249.237C-63.1636 248.201 -63.1638 248.201 -63.975 244.425C-66.2822 245.434 -68.8721 245.597 -71.2885 244.885C-73.3048 244.225 -75.2831 243.453 -77.2141 242.574C-80.2568 241.443 -83.2597 240.895 -85.1368 241.962C-87.0138 243.028 -87.1399 243.872 -85.0565 245.297C-83.3222 246.286 -81.4986 247.108 -79.6105 247.756C-71.0751 251.611 -71.0233 251.665 -74.8931 254.219C-75.705 254.993 -77.5108 255.267 -78.426 255.933C-80.4286 257.844 -79.2505 259.512 -74.5228 261.001L-59.1247 265.549C-57.917 265.948 -56.1925 266.889 -56.3057 267.204C-56.4123 267.728 -56.6768 268.207 -57.0639 268.576C-57.451 268.945 -57.9421 269.187 -58.4709 269.269C-64.8809 269.939 -71.3507 269.784 -77.7222 268.809C-87.3256 267.627 -93.0741 269.078 -94.4867 272.908C-96.7877 277.752 -100.797 281.576 -105.745 283.646C-106.044 283.784 -106.306 283.992 -106.51 284.251C-106.714 284.51 -106.853 284.814 -106.918 285.137C-106.982 285.46 -106.97 285.794 -106.88 286.111C-106.791 286.429 -106.628 286.72 -106.405 286.963C-104.694 288.603 -102.619 289.814 -100.35 290.495C-96.8322 291.69 -94.9054 290.784 -93.877 289.803C-91.5496 287.583 -89.1681 285.311 -89.1604 282.718C-81.8367 279.559 -78.515 275.564 -78.7651 270.425C-80.2633 271.13 -80.6499 271.809 -81.7077 271.784ZM257.723 510.712C258.482 509.883 259.295 509.107 260.159 508.389C260.019 507.591 258.454 506.601 261 506.345L261.672 507.049C261.024 507.475 260.343 507.847 259.635 508.164L257.307 510.384L257.723 510.712ZM-272.51 540.024L-272.923 539.591L-273.388 539.104L-272.51 540.024ZM-54.1145 449.4C-55.9223 447.505 -57.3685 445.989 -56.0153 444.698C-54.6622 443.407 -53.6066 443.538 -51.0803 444.128C-48.5541 444.717 -47.632 446.009 -48.7046 446.618C-50.6653 447.643 -52.7028 448.516 -54.7983 449.225L-55.9769 452.108L-52.6938 454.25C-47.0689 453.205 -41.342 452.809 -35.6262 453.07L-37.5153 452.39L-35.9906 452.796C-36.7923 454.17 -37.9231 455.322 -39.2822 456.149C-40.6412 456.976 -42.1853 457.451 -43.7743 457.532C-43.1693 458.816 -41.243 460.185 -42.1189 461.434C-45.0297 465.968 -48.5187 470.331 -51.8501 474.749C-53.095 475.937 -55.8084 476.56 -59.9238 476.038C-64.4825 476.107 -68.9928 475.093 -73.084 473.078C-76.2519 470.516 -72.006 469.981 -67.7701 469.871C-63.5341 469.76 -65.6051 467.807 -67.103 466.236C-70.8734 462.283 -70.7357 460.91 -64.5614 461.639C-54.6874 462.563 -53.9926 460.039 -52.4474 457.325C-52.0685 456.963 -50.7918 456.676 -49.8841 456.328L-52.7984 454.247L-56.6486 453.679L-55.5122 452.595L-54.1145 449.4ZM162.488 394.718C162.453 393.923 161.852 394.703 161.697 394.54L162.488 394.718ZM-70.9126 151.97C-71.3976 154.604 -74.4065 156.543 -79.0929 157.807C-78.6453 159.035 -77.4595 160.386 -79.4374 161.239C-80.0567 161.418 -80.7058 161.475 -81.3469 161.405C-83.1942 161.202 -84.6059 160.48 -83.7473 159.972C-81.9911 159.159 -80.1693 158.494 -78.3025 157.985C-82.4345 153.653 -75.8079 153.123 -70.1229 152.147L-69.4731 149.252C-69.591 147.503 -67.0377 146.929 -63.0107 146.708C-63.1622 146.205 -63.4014 145.733 -63.7184 145.315C-63.7184 145.315 -63.0992 145.964 -62.9959 146.073C-62.8926 146.181 -63.3205 146.382 -63.537 146.589L-70.5799 149.067L-70.9126 151.97ZM187.655 366.266C187.87 366.847 187.998 367.456 188.035 368.074C188.035 368.074 187.44 368.642 187.223 368.848C187.007 369.055 184.914 368.052 185.932 367.495C186.843 367.122 187.789 366.844 188.756 366.663L187.655 366.266ZM-494.596 419.787C-498.366 415.834 -497.507 413.05 -488.563 412.999L-487.807 410.106C-493.297 405.001 -493.297 405.001 -485.536 403.493L-486.326 403.316C-484.803 406.104 -485.911 408.193 -488.491 409.931L-489.244 412.718C-488.681 415.8 -488.908 418.706 -495.28 419.612L-496.401 422.337C-496.189 422.904 -496.043 423.493 -495.966 424.094C-495.966 424.094 -496.508 424.61 -497.035 424.491C-497.561 424.373 -499.45 423.693 -498.377 423.083C-497.479 422.771 -496.551 422.545 -495.609 422.409L-494.596 419.787ZM224.176 322.951C224.847 323.55 225.469 324.202 226.035 324.901C226.758 325.659 225.956 326.009 224.431 325.603C224.255 325.551 224.095 325.454 223.968 325.321C223.841 325.188 223.752 325.024 223.708 324.845C224.112 324.402 224.546 323.988 225.007 323.606L224.176 322.951ZM-425.978 721.153C-425.048 722.128 -425.318 722.385 -426.952 722.082C-427.277 721.884 -427.543 721.604 -427.726 721.27C-427.937 720.681 -428.1 720.075 -428.213 719.459C-428.248 718.664 -429.917 717.672 -427.108 717.474C-427.108 717.474 -426.385 718.232 -426.437 718.178C-427.236 718.526 -428.056 718.825 -428.892 719.072C-428.174 720.042 -427.131 720.702 -426.3 721.356L-425.978 721.153ZM258.131 543.001L261.418 542.762C259.455 540.704 259.392 538.904 261.013 537.461L260.223 537.283C262.134 539.286 262.355 541.144 261.206 542.757L258.131 543.001ZM-71.2804 549.747C-70.0408 551.047 -70.3362 552.362 -74.6015 551.467C-75.7417 551.079 -76.8304 550.556 -77.8453 549.908C-77.7776 549.74 -77.6755 549.589 -77.5449 549.464C-77.4142 549.34 -77.2585 549.245 -77.0881 549.185L-70.8545 549.651L-69.7818 546.766C-69.3761 546.223 -68.882 545.752 -68.3203 545.372C-68.3203 545.372 -67.2622 545.397 -66.6817 545.464L-70.414 546.646L-71.2804 549.747ZM-200.619 197.401C-200.739 196.913 -200.727 196.402 -200.584 195.92C-200.521 195.75 -200.42 195.596 -200.288 195.471C-200.157 195.346 -199.999 195.252 -199.827 195.197C-198.299 195.498 -197.886 195.931 -198.897 196.172C-199.772 196.443 -200.66 196.669 -201.558 196.849L-200.619 197.401ZM39.3125 61.6223C38.6927 60.9725 37.5569 59.7815 39.948 59.3623L40.6706 60.1198C40.1232 60.736 39.526 61.3056 38.8847 61.8233L39.3125 61.6223ZM27.6719 260.529C28.8696 259.939 30.1006 259.421 31.3592 258.976C32.0377 258.939 32.718 259.027 33.3647 259.236C34.9907 259.857 34.7592 260.698 33.2291 260.502C31.6991 260.307 28.9984 260.401 26.8828 260.351L27.6719 260.529ZM-484.548 397.483L-480.101 397.378L-485.709 395.075C-486.019 394.75 -486.38 394.371 -486.329 394.425C-485.75 394.23 -485.133 394.174 -484.528 394.262C-483.924 394.35 -483.348 394.579 -482.848 394.931C-481.854 395.697 -480.984 396.61 -480.265 397.639L-484.548 397.483ZM83.0018 367.738C83.4091 368.314 83.7325 368.946 83.963 369.613C83.963 369.613 83.4217 370.13 83.2052 370.336C82.9887 370.543 80.6813 369.641 81.7588 368.82C82.5246 368.319 83.3765 367.962 84.271 367.768L83.0018 367.738ZM76.2269 483.097C76.7663 484.217 77.217 485.377 77.5745 486.568C77.5745 486.568 75.5082 486.678 74.3447 486.651C73.1811 486.623 73.5181 485.784 73.5181 485.784C73.5181 485.784 75.4665 483.925 76.8049 483.269L76.2269 483.097ZM-89.4882 500.204C-89.0552 499.791 -89.1953 498.994 -88.1351 498.914C-83.4438 497.438 -84.0504 491.708 -73.3896 495.191C-65.2477 497.766 -71.6735 501 -71.5804 503.807C-71.3247 506.753 -71.9747 509.706 -73.4439 512.272C-74.913 514.838 -77.1312 516.893 -79.8011 518.163C-82.8747 519.803 -86.443 520.264 -89.8336 519.458C-92.7392 519.293 -95.5651 518.445 -98.0835 516.986C-100.216 515.4 -98.922 514.373 -96.0611 514.23C-86.583 513.98 -80.7747 512.266 -84.5105 506.832C-86.8425 506.988 -89.071 507.252 -91.5605 507.352C-97.1175 507.378 -97.1696 507.324 -97.8824 503.867C-95.5234 501.608 -92.4302 500.274 -89.1681 500.106L-89.4882 500.204ZM-442.366 336.152C-447.045 332.548 -446.931 329.958 -442.026 328.381C-440.72 328.213 -439.396 328.281 -438.114 328.581C-436.878 328.815 -435.714 329.332 -434.711 330.091C-432.155 333.962 -434.197 335.289 -443.05 335.977L-444.015 338.759C-442.93 339.896 -441.742 341.141 -443.351 342.055C-443.899 342.23 -444.477 342.29 -445.048 342.227C-446.842 341.973 -448.411 341.195 -447.818 340.732C-446.404 339.947 -444.896 339.343 -443.331 338.934L-442.366 336.152ZM-21.2279 258.462C-20.6597 259.058 -19.937 259.816 -19.6788 260.086C-19.4205 260.357 -20.5449 260.912 -21.1403 261.48C-22.2822 261.294 -23.4082 261.019 -24.5078 260.659C-24.1777 260.085 -23.689 259.619 -23.1005 259.317C-22.0853 258.958 -21.0316 258.717 -19.9611 258.598L-21.2279 258.462ZM119.6 504.294C119.975 503.11 120.576 502.011 121.369 501.055C121.693 500.745 124.283 500.86 125.228 501.2C127.799 502.161 127.722 503.165 126.438 503.769C123.929 504.524 121.271 504.642 118.704 504.113L119.6 504.294ZM55.5246 397.669L56.2282 396.998C57.3107 395.965 58.8142 395.049 62.5334 396.672C66.2525 398.295 65.1501 400.174 61.657 400.197C60.485 400.35 59.2933 400.169 58.2191 399.675C57.1448 399.181 56.232 398.395 55.5843 397.406L55.5246 397.669ZM-61.7766 480.598L-61.3636 481.031C-60.5031 481.926 -59.7779 482.941 -59.2114 484.045C-58.4883 484.804 -59.7286 485.78 -62.2106 485.562C-63.5678 485.366 -64.8819 484.941 -66.097 484.305C-67.7647 483.207 -67.3191 482.265 -65.7767 481.932C-64.0437 481.582 -62.2883 481.358 -60.5228 481.263L-61.7766 480.598ZM-30.2378 268.09C-29.3294 267.73 -28.3545 267.571 -27.3787 267.621C-26.4029 267.672 -25.4493 267.931 -24.5827 268.383C-22.8093 269.484 -24.6225 270.076 -26.0616 270.518C-30.2754 271.654 -34.6485 272.086 -39.0037 271.797C-36.4039 273.764 -33.435 275.793 -35.0613 277.447C-35.6567 278.015 -38.2511 278.112 -40.2609 278.064C-41.7293 277.916 -43.1666 277.543 -44.5216 276.957C-46.8264 275.95 -46.5362 274.845 -45.3627 274.45C-44.1893 274.054 -41.0356 272.701 -38.792 271.802C-36.5484 270.903 -33.1233 269.291 -30.0802 268.147L-30.2378 268.09ZM-250.708 481.276C-252.44 480.653 -252.691 480.064 -251.417 479.883C-250.788 480.04 -250.174 480.249 -249.58 480.509C-247.961 481.447 -246.446 482.278 -244.825 483.11C-243.249 488.122 -243.573 488.431 -249.642 487.704C-251.703 487.662 -253.694 486.946 -255.309 485.665C-255.424 485.556 -255.51 485.421 -255.561 485.272C-255.611 485.123 -255.625 484.964 -255.6 484.808C-255.576 484.653 -255.513 484.505 -255.42 484.379C-255.326 484.252 -255.203 484.151 -255.061 484.083C-252.967 482.81 -248.529 483.128 -244.562 483.169C-246.347 482.598 -248.502 481.963 -250.497 481.28L-250.708 481.276ZM93.4665 465.516C92.1752 464.162 95.3311 464.978 96.7086 464.905C89.1012 457.58 89.2713 457.108 101.83 454.127L100.985 454.001C101.268 456.06 100.986 458.157 100.167 460.067C99.3489 461.978 98.0254 463.629 96.3393 464.844L93.4665 465.516ZM217.565 309.193L216.461 308.902C217.31 307.122 218.544 305.553 220.074 304.308C221.604 303.063 223.392 302.174 225.308 301.704C226.66 301.558 228.027 301.699 229.32 302.118C229.888 302.714 230.663 303.526 230.284 303.888C226.155 307.086 221.055 308.776 215.831 308.676L217.565 309.193ZM0.715998 243.322C1.10035 244.239 1.13335 245.265 0.808719 246.204C0.484091 247.143 -0.174388 247.93 -1.04264 248.413C-2.2921 249.466 -3.76992 250.215 -5.35846 250.599C-6.94703 250.984 -8.60338 250.995 -10.1968 250.629C-10.8902 250.532 -11.5532 250.281 -12.1376 249.895C-15.5663 247.167 -10.2182 247.03 -7.91561 245.868C-5.61294 244.706 -1.78777 244.056 1.30205 243.177L0.715998 243.322ZM58.1787 331.743C57.5072 331.039 58.7206 331.227 59.4929 332.145C59.9447 332.493 60.4345 332.789 60.9535 333.027C70.3396 338.966 70.1706 339.438 58.2618 341.8C61.8009 346.594 59.6085 349.823 51.9997 351.599C50.5878 351.653 49.1764 351.458 47.8319 351.024C46.8873 350.684 46.1277 349.237 46.231 349.345C51.2029 347.188 52.2391 343.615 59.0484 342.084C55.0713 337.914 51.6624 334.34 61.2587 333.564C60.2583 333.032 59.2993 332.425 58.3905 331.748L58.1787 331.743ZM-44.8905 292.718C-48.8148 297.599 -52.8454 302.477 -57.0329 307.298C-58.25 308.371 -59.65 309.215 -61.1661 309.792C-64.8748 311.732 -69.1959 312.142 -73.2046 310.933C-76.9555 308.41 -73.0169 307.446 -71.558 306.158C-66.1454 300.995 -59.9584 296.645 -54.5091 292.171C-56.4293 286.039 -55.1424 285.33 -42.7666 285.625C-42.7644 287.795 -41.6681 290.678 -44.6794 292.723L-44.8905 292.718ZM-79.5866 382.38C-79.5866 382.38 -81.8566 382.167 -83.0177 382.034C-84.1787 381.9 -83.5167 380.752 -82.9313 380.607C-80.9633 380.177 -78.5261 380.024 -76.2974 379.759C-86.5786 371.365 -79.9208 367.29 -68.6884 364.436C-69.3082 363.786 -70.3412 362.703 -70.5994 362.433C-70.0646 355.407 -62.5913 350.347 -57.063 344.763C-56.4135 344.144 -53.7121 344.05 -51.3531 345.005C-50.4865 345.452 -49.7951 346.176 -49.3904 347.063C-48.8739 347.605 -48.7884 348.453 -49.2756 348.918C-54.6882 354.081 -57.132 361.272 -69.5354 364.416C-70.8287 370.039 -73.3756 375.297 -76.9862 379.796C-77.6893 380.741 -78.4897 381.609 -79.3749 382.385L-79.5866 382.38ZM116.823 514.388L118.034 514.681C116.278 518.882 112.98 522.249 108.817 524.092C107.865 524.377 106.867 524.47 105.879 524.364C104.891 524.259 103.934 523.958 103.063 523.479C100.968 522.582 100.041 521.502 100.533 520.825C105.724 517.104 111.952 515.105 118.341 515.112L116.823 514.388ZM250.176 84.8046C251.823 93.5755 243.808 99.1521 227.973 101.949L229.709 102.361L228.711 102.072C234.823 94.8148 242.433 88.967 251.02 84.9301L250.176 84.8046ZM-117.632 547.318C-121.597 542.62 -120.506 538.994 -115 536.638C-109.656 535.375 -104.061 535.673 -98.8808 537.499C-97.8687 537.849 -96.9435 538.413 -96.1677 539.152C-96.1677 539.152 -96.5465 539.513 -96.8172 539.771C-97.2847 540.038 -97.8235 540.155 -98.3598 540.105C-108.974 539.164 -112.049 541.683 -112.247 545.595C-112.53 546.789 -113.022 547.923 -113.701 548.946C-110.865 549.86 -107.973 550.618 -105.505 551.47C-105.092 551.904 -104.679 552.336 -104.59 553.079C-105.891 552.927 -107.177 552.667 -108.435 552.3C-110.469 551.035 -112.08 549.779 -113.849 548.467C-115.069 548.184 -116.263 547.801 -117.421 547.323L-117.632 547.318ZM-109.101 354.687L-109.98 353.767C-109.352 353.322 -108.688 352.931 -107.994 352.598C-114.66 347.993 -114.271 344.933 -106.455 343.374C-101.549 342.301 -96.5201 341.887 -91.5034 342.143C-102.904 336.367 -103.429 336.143 -97.7533 333.315C-94.2722 331.546 -91.1013 329.452 -91.2584 327.12C-91.4155 324.788 -85.8449 321.957 -83.6109 319.206C-78.937 318.47 -82.6343 313.619 -72.4111 315.451C-68.1952 318.462 -70.574 320.628 -72.2027 322.389C-76.7493 326.725 -77.4705 332.687 -85.333 336.257C-87.7007 337.744 -89.744 339.693 -91.3409 341.987C-92.9105 343.485 -94.225 345.359 -95.3765 347.078C-97.2441 349.997 -101.151 351.861 -108.519 352.373C-108.12 353.441 -106.135 354.547 -108.89 354.693L-109.101 354.687ZM35.1632 370.037L33.4828 369.467L34.3735 369.858C33.7989 374.426 31.8951 378.724 28.8984 382.217C27.3828 383.662 24.6959 385.397 27.6499 388.061C21.3283 395.883 14.7425 403.717 7.8913 411.562C6.97119 412.439 6.56258 414.069 4.49624 414.179C-7.10978 414.907 -9.48937 419.349 -15.0665 422.497C-17.5882 423.971 -20.2646 425.284 -22.8895 426.65C-22.2029 427.478 -21.7217 428.457 -21.4861 429.506C-21.2506 430.556 -21.2677 431.645 -21.5347 432.687C-21.8018 433.729 -22.3117 434.693 -23.023 435.499C-23.7342 436.305 -24.6262 436.932 -25.6264 437.327C-27.857 438.826 -29.8153 440.693 -31.4176 442.851C-32.446 443.832 -34.7812 444.094 -37.4797 444.082L-36.69 444.259C-41.3289 441.238 -44.8095 438.456 -40.6297 436.227C-37.8891 434.455 -35.3103 432.445 -32.9223 430.22C-29.9455 427.758 -26.168 426.473 -22.3065 426.61L-38.0718 424.171C-41.429 420.651 -35.3309 420.109 -32.0221 418.918C-26.808 417.401 -21.9936 414.75 -17.923 411.157C-15.7379 408.541 -12.6641 406.824 -9.29055 406.335C1.74487 405.117 -1.38806 398.798 5.55173 396.212C6.14713 395.644 4.7479 394.394 3.924 393.422C3.10004 392.45 3.50577 390.924 6.21174 390.618L28.0784 387.859C25.1881 386.997 22.1383 386.183 19.3563 385.217C16.5743 384.251 12.5548 381.879 15.1724 380.831C22.496 377.672 23.1285 373.242 26.3 368.872C25.7046 369.44 25.1095 370.008 23.9485 369.874C22.7874 369.741 22.6866 369.527 24.5979 369.255C24.9227 368.945 25.1939 368.687 25.8261 368.808L35.1632 370.037ZM-0.61569 478.829C-0.020332 478.262 2.10761 477.783 4.68302 478.532C5.9078 478.819 7.04127 479.411 7.97728 480.251C9.76275 483.099 8.70387 485.349 5.70498 486.865C4.09856 487.673 -0.545589 487.139 -4.09775 487.425C1.54165 495.18 0.335229 501.501 -8.65648 505.838C-10.2308 506.386 -11.9434 506.392 -13.5223 505.856C-15.1012 505.32 -16.4554 504.272 -17.371 502.878C-18.0941 502.12 -18.2763 500.845 -17.5726 500.174C-13.0801 495.889 -8.47901 491.501 -3.62252 487.489C-2.68761 484.507 -1.57677 481.582 -0.295546 478.731L-0.61569 478.829ZM-109.14 462.587C-112.14 455.107 -106.619 449.84 -102.99 444C-99.8907 440.636 -96.3309 437.728 -92.4161 435.363C-88.9552 436.715 -88.8713 437.67 -89.4716 438.45C-94.2351 445.268 -98.8923 452.089 -104.022 458.74C-105.807 460.278 -107.818 461.533 -109.984 462.461L-109.14 462.587ZM53.8236 241.996C49.4181 240.304 46.132 238.267 48.6586 236.581C54.7426 232.123 61.3433 228.205 68.2736 223.766C69.5327 223.501 70.8367 223.533 72.082 223.858C74.4483 224.496 75.4247 225.737 74.6128 226.511C68.3792 232.707 61.2036 237.876 53.3521 241.826L53.8236 241.996ZM-90.2001 392.711C-89.9407 399.736 -91.8393 406.671 -95.6398 412.584C-96.3042 413.838 -99.1262 414.564 -101.367 415.358C-102.815 415.42 -104.261 415.225 -105.64 414.78C-106.793 414.329 -108.464 413.336 -108.402 412.967C-107.954 410.301 -107.107 407.717 -105.893 405.301C-103.967 402.119 -101.204 399.381 -98.9555 395.995C-97.6908 393.961 -93.917 393.257 -89.4103 392.888L-90.2001 392.711ZM118.622 132.308C125.331 130.563 128.039 127.876 128.552 124.078C129.064 120.281 137.585 117.944 146.625 118.318C147.523 118.392 149.723 119.397 149.661 119.766C149.306 121.459 148.542 123.04 147.437 124.37C141.443 131.741 131.418 137.27 112.127 138.503C116.498 139.401 121.677 139.737 121.342 142.745C120.759 144.999 119.626 147.074 118.043 148.782C116.461 150.49 114.479 151.778 112.275 152.53C106.496 155.25 99.9846 157.635 93.6327 159.97L94.476 160.096C92.0336 158.186 89.7539 156.121 91.6458 154.42C97.0584 149.257 102.781 144.419 108.939 139.062C109.426 138.598 111.488 138.7 112.762 138.519C112.46 135.601 113.993 133.415 118.999 132.052L118.622 132.308ZM-32.2576 331.755C-36.5788 333.291 -40.6567 335.439 -44.3664 338.134C-45.6572 338.25 -46.9582 338.165 -48.2234 337.883C-48.2234 337.883 -49.6372 337.267 -49.6323 337.056C-49.5233 332.402 -47.5257 328.427 -33.9987 329.279C-37.7448 326.544 -38.5954 324.46 -36.9985 321.799C-31.4803 313.929 -24.9046 306.856 -17.4564 300.781C-16.2656 299.645 -16.0557 297.48 -10.959 299.031C-8.96407 299.713 -8.59796 302.156 -7.84056 303.709C-7.7738 303.863 -7.73857 304.03 -7.73635 304.198C-7.73415 304.366 -7.76589 304.533 -7.82863 304.689C-7.89131 304.845 -7.98334 304.987 -8.10129 305.107C-8.21923 305.226 -8.36047 305.322 -8.51548 305.387C-20.5601 311.291 -23.7248 319.894 -31.4648 327.276C-32.5578 328.008 -33.7468 328.585 -34.9977 328.991C-33.8048 330.025 -31.512 331.562 -32.0459 331.761L-32.2576 331.755ZM-130.247 453.246C-130.118 446.078 -129.313 438.94 -127.843 431.924C-125.481 428.144 -122.205 425.019 -118.317 422.838C-117.721 422.27 -114.809 422.18 -112.912 422.543C-111.016 422.906 -109.724 424.26 -110.226 425.359C-110.914 428.291 -111.958 431.128 -113.335 433.805C-117.075 439.855 -121.29 445.839 -125.662 451.768C-126.474 452.542 -129.339 452.897 -131.204 453.435L-130.247 453.246ZM-450.715 346.907C-449.812 346.692 -448.883 346.607 -447.957 346.655C-447.369 346.774 -446.814 347.023 -446.333 347.383C-444.835 348.953 -446.54 349.441 -447.406 350.267C-447.077 352.021 -445.382 354.231 -446.735 355.522C-454.475 362.905 -456.061 371.863 -463.009 379.317C-463.749 380.432 -464.729 381.367 -465.878 382.053C-467.126 382.482 -468.447 382.653 -469.763 382.558C-471.08 382.463 -472.364 382.104 -473.538 381.501C-476.733 380.101 -475.914 379.01 -474.782 378.137C-467.133 372.393 -465.054 364.927 -460.241 358.269C-458.953 355.677 -456.9 353.543 -454.359 352.156C-451.819 350.769 -448.914 350.195 -446.036 350.512C-447.753 349.254 -449.261 348.106 -450.503 346.912L-450.715 346.907ZM-174.291 426.794C-173.941 425.427 -169.862 425.26 -165.907 425.83C-163.723 426.067 -161.582 426.599 -159.541 427.411C-158.183 428.184 -157.216 429.848 -157.698 430.101C-161.304 432.466 -164.27 435.685 -166.331 439.473C-167.276 441.408 -172.518 441.548 -176.919 441.919C-173.695 444.324 -171.322 446.922 -173 448.522C-177.379 454.768 -182.401 461.315 -187.626 467.541C-188.438 468.315 -191.307 468.776 -193.745 468.93C-195.724 469.045 -197.669 468.371 -199.151 467.054C-200.998 464.576 -199.107 462.874 -197.901 461.104C-194.506 456.211 -190.478 451.439 -187.294 446.54C-185.645 443.934 -180.384 442.948 -176.179 441.937C-183.748 435.194 -175.413 431.795 -173.971 426.696L-174.291 426.794ZM-396.631 595.537C-391.426 594.709 -386.479 593.61 -381.534 592.617C-386.833 590.638 -390.222 588.494 -390.428 586.002C-390.95 583.872 -390.814 581.634 -390.038 579.584C-389.263 577.534 -387.885 575.767 -386.085 574.516L-389.363 572.162C-399.483 568.164 -395.458 565.772 -393.345 563.653L-394.029 563.478C-378.285 564.595 -376.044 563.801 -379.502 557.792C-381.534 554.145 -384.883 550.308 -377.085 549.488C-376.182 549.351 -376.111 548.559 -376.253 547.868C-376.396 547.177 -382.378 542.747 -378.087 542.585C-368.285 542.025 -372.52 535.31 -361.153 535.74L-377.082 529.009C-377.497 526.406 -368.984 528.938 -368.725 526.933C-368.603 525.458 -368.284 524.007 -367.777 522.616C-367.449 522.298 -367.053 522.057 -366.62 521.912C-366.186 521.767 -365.725 521.721 -365.271 521.777C-363.324 521.897 -361.485 522.71 -360.086 524.07C-354.02 529.454 -355.325 533.18 -362.154 535.557C-361.068 540.773 -361.167 546.165 -362.442 551.336C-363.717 556.508 -366.136 561.327 -369.521 565.438C-370.245 566.223 -370.792 567.154 -371.126 568.169C-371.46 569.183 -371.573 570.257 -371.457 571.319C-370.455 578.222 -376.133 583.432 -377.603 589.694C-377.898 591.01 -380.877 591.68 -382.594 592.697C-379.905 602.128 -381.736 612.562 -387.685 615.754C-388.971 616.425 -390.459 616.598 -391.866 616.243C-393.273 615.887 -394.499 615.027 -395.313 613.826L-406.724 610.749L-399.013 600.084C-399.743 600.585 -400.587 600.892 -401.468 600.978C-403.158 600.832 -402.991 600.465 -400.873 600.41C-400.374 600.414 -399.882 600.299 -399.437 600.074C-399.021 598.126 -400.193 596.246 -396.419 595.542L-396.631 595.537ZM-408.137 684.694C-410.037 685.007 -411.98 684.925 -413.847 684.453C-416.215 683.92 -417.772 682.613 -417.435 681.774C-417.098 680.935 -415.142 678.759 -414.31 677.139C-411.756 672.014 -408.727 666.953 -416.657 659.831C-418.103 658.315 -418.185 657.255 -416.787 656.336C-415.39 655.417 -412.905 653.253 -413.118 651.078C-412.415 650.407 -411.495 649.529 -411.007 649.065C-410.52 648.6 -412.634 646.169 -411.559 645.454C-409.517 644.126 -404.141 645.102 -399.967 645.36C-407.435 641.107 -409.138 637.044 -407.792 633.796C-406.864 631.302 -406.47 628.64 -406.636 625.983C-406.802 623.326 -407.523 620.734 -408.755 618.373C-409.153 617.305 -409.028 616.462 -406.752 616.463C-403.697 616.41 -400.67 617.062 -397.906 618.367C-393.088 620.493 -389.287 623.178 -389.337 625.293C-389.623 633.012 -388.124 641.303 -400.501 645.558C-397.852 647.685 -396.575 649.674 -396.777 651.522C-397.955 661.125 -396.028 671.489 -405.246 678.731C-405.817 680.517 -403.928 683.472 -407.926 684.699L-408.137 684.694ZM-465.697 801.646L-469.667 810.706L-472.693 811.11C-473.295 809.72 -470.516 810.792 -469.35 810.714C-470.795 809.998 -472.077 808.99 -473.113 807.754C-474.15 806.517 -474.92 805.081 -475.373 803.532C-476.373 796.884 -476.834 790.166 -476.754 783.443C-475.783 773.624 -470.292 765.076 -471.953 754.664C-472.28 752.804 -470.55 751.258 -470.771 749.401C-471.442 744.146 -465.369 742.386 -454.164 742.971C-458.749 742.173 -463.334 741.376 -467.811 740.475C-470.446 739.989 -471.793 738.793 -471.033 737.964C-470.273 737.136 -468.158 737.187 -465.683 737.722C-460.471 738.852 -458.895 741.588 -454.324 743.02C-455.675 743.375 -456.855 744.197 -457.656 745.341C-458.458 746.484 -458.829 747.875 -458.704 749.266C-460.275 757.354 -460.841 765.605 -460.39 773.832C-460.677 781.322 -462.081 788.726 -464.556 795.8L-465.813 802.067L-465.697 801.646ZM-226.579 544.613C-226.579 544.613 -227.012 545.026 -227.228 545.232C-227.445 545.439 -229.701 544.591 -228.726 543.662C-228.033 543.234 -227.298 542.879 -226.532 542.603L-229.442 540.311C-235.649 529.685 -227.645 522.362 -225.064 513.798C-224.434 511.749 -222.234 510.478 -218.567 509.772C-215.502 508.926 -212.519 507.811 -209.652 506.44L-209.342 506.764C-214.724 506.107 -219.449 504.512 -218.182 502.373C-214.592 495.49 -211.676 488.276 -209.475 480.832C-207.471 477.537 -204.633 474.83 -201.248 472.984C-200.166 471.952 -196.525 472.408 -193.327 473.702C-190.13 474.995 -190.467 475.834 -191.277 476.502C-195.929 481.13 -198.599 487.385 -198.723 493.946C-200.021 497.962 -200.48 502.202 -200.072 506.403C-199.906 509.385 -200.718 512.339 -202.386 514.815C-204.999 520.203 -207.878 525.638 -210.966 530.962C-212.429 534.133 -214.72 536.852 -217.597 538.832C-220.474 540.812 -223.831 541.979 -227.316 542.213C-226.982 542.91 -226.733 543.645 -226.574 544.401L-226.579 544.613ZM14.9859 314.202C11.0665 318.871 6.77978 323.373 2.54554 327.929C-7.38673 338.54 -17.6846 348.984 -26.9822 359.61C-36.2799 370.237 -42.9237 380.503 -52.6246 390.273C-62.3256 400.044 -67.5251 411.932 -76.4463 422.303C-77.6371 423.439 -78.3067 424.904 -79.4458 426.094C-83.0181 429.502 -86.9663 430.889 -89.3129 429.405C-93.9002 426.438 -89.9542 425.155 -89.0659 423.377C-84.0526 413.401 -77.7315 404.138 -70.2701 395.832C-58.3104 382.253 -45.9816 368.735 -34.231 355.045C-28.5206 348.461 -23.9664 341.532 -17.4146 335.179C-9.14501 325.554 -0.0859234 316.636 9.6682 308.519L27.7563 288.577C29.5208 286.364 31.5785 284.401 33.8726 282.743C48.7541 273.203 56.2807 261.37 69.5929 251.051C71.3637 249.865 72.8181 248.265 73.8297 246.39C74.4489 244.549 75.5062 242.887 76.9113 241.547C78.3163 240.206 80.0267 239.229 81.8945 238.697C85.0408 237.661 86.8762 236.117 86.0254 234.032C83.9106 229.431 90.1467 227.516 95.3891 225.101C97.3236 224.438 99.4369 224.527 101.31 225.349C102.722 226.071 103.583 227.731 103.361 228.149C101.785 230.864 99.8396 233.347 97.5798 235.526C85.239 247.297 72.2707 258.736 60.0407 270.298C49.2155 280.623 38.7518 291.327 28.1849 301.923C25.2807 305.927 21.0219 308.739 16.1991 309.839C15.8446 311.418 16.1818 312.855 15.2493 314.262L14.9859 314.202ZM-111.056 363.584C-114.485 370.445 -118.913 376.759 -124.194 382.321C-133.866 390.822 -138.49 400.713 -146.267 409.682C-149.423 413.417 -148.632 418.04 -150.377 422.496C-150.997 424.122 -154.908 423.923 -159.016 423.084C-163.124 422.245 -166.833 420.199 -166.484 418.832C-166.134 417.464 -166.469 418.196 -165.888 418.263C-154.411 409.488 -156.284 396.796 -143.912 388.201C-142.829 387.169 -142.802 386.004 -142.563 384.846C-140.491 375.423 -128.54 368.988 -122.421 360.773C-121.555 359.947 -118.949 359.427 -116.77 359.002C-115.37 359.21 -113.994 359.563 -112.667 360.054C-110.418 361.219 -110.133 362.6 -110.793 363.643L-111.056 363.584ZM118.449 207.554C115.922 206.964 114.257 205.76 115.121 205.04C126.486 193.786 138.916 183.662 152.236 174.809C153.147 174.41 154.132 174.212 155.127 174.226C156.122 174.241 157.102 174.469 158.002 174.894C158.998 175.289 160.033 176.266 159.758 176.735C158.159 180.007 155.83 182.867 152.948 185.093C144.056 189.872 136.149 196.29 129.644 204.01C127.971 206.081 125.576 207.441 122.94 207.819C121.528 207.85 120.115 207.782 118.712 207.613L118.449 207.554ZM136.823 476.076C137.625 473.327 139.001 470.781 140.861 468.605C144.402 465.086 148.118 461.748 151.996 458.604C152.594 458.389 153.249 458.386 153.849 458.596C155.002 459.047 156.886 459.938 156.775 460.147C153.036 466.196 149.086 472.135 145.086 478.019C144.707 478.381 142.803 478.335 141.794 478.47C139.209 478.143 136.747 477.079 136.978 476.238L136.823 476.076ZM-104.56 531.437C-107.386 530.099 -108.154 528.969 -106.857 527.836C-105.581 526.831 -104.403 525.707 -103.339 524.48C-101.769 522.983 -98.0568 522.649 -93.7224 522.858C-89.3881 523.068 -85.5612 524.588 -85.7041 526.172C-85.7389 528.284 -86.2203 530.364 -87.1169 532.276C-87.8747 532.999 -89.798 533.8 -90.6025 534.257C-95.4307 534.717 -100.288 533.735 -104.56 531.437ZM-119.914 570.177C-122.019 570.293 -124.128 570.028 -126.139 569.394C-128.606 568.541 -128.154 567.282 -128.567 566.849C-128.441 565.956 -128.366 565.056 -128.345 564.155C-128.362 562.62 -129.425 560.531 -125.614 560.516C-119.263 560.456 -119.069 563.477 -115.879 565.087C-112.688 566.698 -109.513 566.668 -108.711 568.592C-112.211 568.932 -115.776 569.747 -119.808 570.18L-119.914 570.177ZM127.935 494.067C127.212 493.309 125.426 492.737 125.594 492.371C125.957 490.597 126.685 488.919 127.73 487.441C128.776 485.963 130.118 484.718 131.669 483.785C133.315 483.192 135.086 483.034 136.812 483.325C139.341 483.809 140.366 485.21 139.498 486.141C136.629 488.878 133.598 491.768 131.256 494.623C129.408 494.42 128.299 494.341 128.041 494.07L127.935 494.067ZM-11.6265 515.186C-12.0123 516.472 -12.7826 517.609 -13.8331 518.444C-14.8836 519.28 -16.1639 519.774 -17.5037 519.861C-19.3678 520.273 -21.299 520.281 -23.1668 519.885C-27.2698 518.835 -26.4996 517.582 -25.6828 516.596C-24.8659 515.61 -26.0731 512.936 -22.666 512.065C-19.4052 511.518 -16.056 511.91 -13.0087 513.195C-12.3889 513.845 -11.3017 514.876 -11.6265 515.186ZM181.323 376.752C178.292 379.643 175.517 382.91 172.432 385.853C171.674 386.576 170.23 387.229 167.559 386.054C166.511 385.606 165.906 384.321 165.803 384.213C168.475 379.877 172.341 376.406 176.938 374.213C177.631 374.162 178.327 374.232 178.996 374.421C179.574 374.637 180.135 374.897 180.672 375.201C181.036 375.474 181.705 376.285 181.38 376.594L181.323 376.752ZM-116.674 330.059C-117.145 331.381 -117.919 332.573 -118.934 333.541C-119.949 334.51 -121.177 335.227 -122.52 335.635C-124.411 336.248 -126.462 336.142 -128.281 335.338C-129.696 334.722 -130.347 333.172 -130.554 332.956C-129.919 330.696 -128.021 328.782 -122.927 328.163C-121.528 328.229 -120.136 328.385 -118.758 328.633C-118.123 328.648 -116.714 329.476 -116.933 329.788L-116.674 330.059ZM36.0823 360.163C35.1009 359.134 34.1197 358.105 34.9808 357.491C36.803 356.588 38.768 356.008 40.7887 355.777C42.8687 355.444 45.0009 355.81 46.8499 356.82C47.6445 357.194 48.2713 357.851 48.6065 358.662C48.8842 360.362 47.7959 361.606 44.3471 362C41.2222 362.318 38.0829 361.551 35.4551 359.83L36.0823 360.163ZM37.1981 251.442C37.1981 251.442 36.3715 250.576 36.3198 250.522C37.8663 248.347 39.5409 246.266 41.3344 244.291C41.6591 243.981 43.989 243.931 44.9877 244.22C46.0083 244.601 46.9329 245.201 47.6977 245.977C51.5715 250.039 46.2582 250.97 41.257 252.121C39.8869 251.876 38.5141 251.738 37.1981 251.442ZM207.181 124.367C208.443 123.944 209.789 123.83 211.104 124.037C213.842 124.631 214.133 125.802 213.377 126.42C209.677 130.166 204.727 132.421 199.47 132.755C200.094 130.894 201.104 129.185 202.432 127.74C203.761 126.294 205.379 125.145 207.181 124.367ZM198.276 351.068C200.087 348.599 202.087 346.277 204.259 344.119C204.638 343.758 206.496 343.538 207.603 343.723C210.5 344.269 210.899 345.336 210.133 346.376C208.332 348.715 208.895 351.797 204.152 353.219C202.775 353.303 201.392 353.234 200.029 353.014C199.518 352.261 198.057 351.38 198.33 351.016L198.276 351.068ZM243.359 285.625C240.656 283.549 240.65 281.591 242.327 279.991C243.465 279.507 244.714 279.354 245.935 279.548C247.344 279.643 248.721 280.017 249.984 280.65C252.463 283.249 252.943 285.377 249.627 286.886C247.454 287.263 245.218 286.813 243.359 285.625ZM82.1364 477.046C80.405 474.147 82.0906 472.23 86.5679 470.855C87.2462 470.823 87.925 470.91 88.5727 471.114C88.9343 471.493 89.8276 471.779 89.6061 472.198C89.6941 473.403 89.3744 474.602 88.6983 475.603C88.0222 476.605 87.0288 477.349 85.8782 477.718C85.8782 477.718 84.6059 477.793 83.9712 477.778C83.3366 477.763 82.289 477.315 82.3432 477.263L82.1364 477.046ZM-107.877 180.298C-107.877 180.298 -108.497 179.648 -108.549 179.594C-108.07 178.505 -107.299 177.569 -106.321 176.892C-105.343 176.214 -104.196 175.822 -103.008 175.758C-102.275 175.742 -101.545 175.849 -100.846 176.074C-100.282 176.226 -99.7628 176.51 -99.331 176.904C-97.848 179.109 -101.358 179.872 -104.239 180.861L-107.877 180.298ZM-412.01 694.18C-414.108 694.341 -416.205 693.847 -418.011 692.767C-420.077 690.601 -419.628 689.553 -416.602 689.149C-414.512 688.998 -412.432 689.571 -410.714 690.772C-407.9 692.638 -408.409 694.055 -412.065 694.232L-412.01 694.18ZM-135.369 341.995C-135.332 342.855 -135.459 343.715 -135.745 344.527C-135.876 345.582 -134.644 347.199 -138.289 346.953C-139.51 346.752 -140.662 346.252 -141.642 345.497C-143.903 342.586 -142.48 340.609 -138.672 340.7C-136.931 340.9 -135.566 341.355 -135.423 342.047L-135.369 341.995ZM-118.808 577.189C-120.13 577.863 -121.587 578.232 -123.071 578.27C-124.555 578.308 -126.03 578.013 -127.385 577.407C-127.613 577.316 -127.818 577.176 -127.987 576.999C-128.156 576.822 -128.286 576.61 -128.367 576.379C-128.482 574.524 -125.515 574.383 -121.766 574.737C-121.134 574.858 -120.347 575.141 -119.663 575.316C-118.979 575.491 -118.434 577.039 -118.862 577.241L-118.808 577.189ZM150.007 405.691C147.503 404.15 148.585 403.117 150.715 402.533C151.648 402.265 152.63 402.209 153.587 402.369C154.545 402.529 155.455 402.902 156.25 403.46C157.852 405.138 156.405 405.897 154.065 406.371C152.673 406.347 151.289 406.135 149.952 405.743L150.007 405.691ZM167.683 168.246C166.388 168.467 165.069 168.507 163.764 168.364C163.292 168.109 162.912 167.711 162.68 167.227C162.456 165.476 163.967 164.242 166.793 163.304C166.793 163.304 168.165 163.442 168.957 163.514C171.442 165.902 169.877 167.187 167.68 168.352L167.683 168.246ZM2.30298 471.702C1.11503 470.456 1.60436 469.886 3.40998 469.612C6.07609 469.162 8.8159 469.658 11.1559 471.014C12.8752 472.166 11.2763 472.657 9.26164 472.82C6.85363 473.444 4.29696 473.098 2.14045 471.857L2.30298 471.702ZM2.1393 89.8404C0.0510421 88.6263 0.606871 87.4755 2.58228 86.7289C3.49151 86.4115 4.46355 86.3152 5.41753 86.4484C6.37151 86.5816 7.28014 86.9398 8.06803 87.4941C9.35928 88.8479 8.70258 89.7851 5.61772 90.4524C4.39084 90.4386 3.16909 90.2855 1.97677 89.9954L2.1393 89.8404ZM-51.88 134.643C-52.9278 134.195 -54.4479 133.576 -54.3863 133.207C-54.3247 132.838 -53.1068 130.539 -49.7613 130.037C-49.0534 129.958 -48.3374 130.011 -47.6487 130.193C-47.2872 130.572 -46.4972 130.75 -46.667 131.222C-46.8368 131.694 -47.5255 134.006 -50.2389 134.629C-50.8332 134.742 -51.4374 134.799 -52.0425 134.798L-51.88 134.643ZM-94.1515 170.413C-94.8704 170.416 -95.585 170.291 -96.2604 170.045C-96.6219 169.666 -97.4087 169.383 -97.138 169.125C-95.4208 168.107 -93.546 167.146 -91.5656 166.188C-90.8813 166.183 -90.202 166.307 -89.5633 166.553C-89.1779 166.796 -88.8583 167.131 -88.6333 167.528C-89.5167 169.094 -90.9193 170.226 -94.314 170.568L-94.1515 170.413ZM-38.1416 121.953C-35.6203 122.754 -37.1461 124.623 -41.173 124.845C-42.5587 124.917 -43.9475 124.776 -45.291 124.428C-48.1788 123.46 -46.6629 122.014 -42.2055 121.485C-40.887 121.557 -39.5797 121.766 -38.3042 122.108L-38.1416 121.953ZM-104.804 309.015C-106.074 308.838 -107.302 308.433 -108.427 307.818C-109.512 306.681 -107.756 306.247 -105.483 306.354C-104.24 306.637 -103.027 307.038 -101.86 307.552C-101.309 308.888 -102.642 309.332 -104.967 309.17L-104.804 309.015ZM21.1297 451.883C20.8198 451.558 20.5241 450.599 21.1145 450.243C21.874 449.867 22.726 449.717 23.5683 449.812C24.4106 449.908 25.2078 450.243 25.8647 450.779C26.2779 451.213 25.1071 451.502 24.6741 451.915L21.1297 451.883ZM114.994 214.986C114.129 215.286 113.206 215.378 112.298 215.256C111.391 215.133 110.526 214.798 109.772 214.279C108.635 213.087 109.233 212.414 111.196 212.196C112.526 212.171 113.854 212.292 115.157 212.556C116.665 213.703 116.485 214.598 114.886 215.089L114.994 214.986ZM80.8123 171.888C79.7437 171.643 78.7046 171.281 77.715 170.809C78.2562 170.293 78.8519 169.725 80.0105 169.964C81.0924 170.161 82.1369 170.526 83.1072 171.044C82.2511 171.446 81.6559 172.014 80.704 171.991L80.8123 171.888ZM234.937 295.002C236.125 296.248 235.478 296.761 233.151 296.706C232.057 296.556 231.025 296.111 230.165 295.418C229.804 295.039 230.977 294.644 231.41 294.231C232.581 294.38 233.729 294.674 234.829 295.106L234.937 295.002ZM11.2676 274.108C11.2676 274.108 11.6465 273.746 11.9712 273.437C12.5385 273.242 13.1456 273.196 13.7359 273.302C14.3262 273.409 14.8801 273.665 15.3437 274.046C15.7569 274.479 14.6397 274.718 14.2608 275.079C12.5585 275.462 11.784 274.649 11.2676 274.108ZM-13.3379 102.225C-12.7181 102.874 -13.6404 103.858 -14.3982 104.58C-14.9586 104.85 -15.5803 104.969 -16.2007 104.926C-16.8213 104.884 -17.4202 104.681 -17.9388 104.337C-19.0751 103.146 -18.4272 102.632 -16.9856 102.085C-15.544 101.537 -13.5887 101.636 -13.2837 102.173L-13.3379 102.225ZM-48.697 263.152C-49.8556 262.912 -51.0684 262.725 -52.1729 262.434C-53.2774 262.143 -52.6376 261.946 -52.6893 261.892C-52.7409 261.838 -51.2449 261.239 -49.6706 261.805L-48.697 263.152ZM105.348 529.883C105.657 530.208 106.329 530.912 105.47 531.421C104.612 531.93 103.252 531.262 102.037 531.18L101.705 529.532L105.348 529.883ZM-52.7146 577.231L-48.9161 577.745C-48.9161 577.745 -48.5029 578.178 -48.2963 578.395L-52.0948 577.881L-52.7146 577.231ZM268.807 251.942C268.24 251.807 267.693 251.598 267.181 251.32C267.776 250.752 268.263 250.288 269.825 251.383L268.807 251.942ZM74.1107 177.867C74.1107 177.867 73.5154 178.435 72.8832 178.314C72.251 178.193 70.0343 177.928 69.9459 177.185C69.8574 176.442 70.746 176.94 71.174 176.739C71.6021 176.537 74.2881 177.078 74.379 177.715L74.1107 177.867ZM-208.534 420.262C-209.412 419.342 -209.36 419.396 -207.559 419.333C-207.076 419.472 -206.63 419.718 -206.254 420.052C-206.254 420.052 -206.633 420.413 -206.849 420.62C-207.353 420.514 -207.845 420.361 -208.32 420.162L-208.534 420.262ZM213.172 411.009C213.167 410.477 213.215 409.946 213.315 409.424L215.105 409.785L215.068 411.371L213.172 411.009ZM-142.776 475.332C-144.461 474.974 -145.083 474.43 -144.274 473.761C-143.852 473.533 -143.36 473.469 -142.894 473.582C-141.155 473.888 -140.586 474.484 -141.344 475.207C-142.102 475.93 -141.984 475.403 -142.511 475.284L-142.776 475.332ZM162.28 451.07C162.28 451.07 161.276 450.993 160.747 450.981C160.218 450.968 160.231 450.44 160.282 450.494C160.334 450.548 161.235 450.516 161.815 450.583C162.396 450.65 162.76 450.923 162.546 451.024L162.28 451.07ZM31.9806 433.674C31.9806 433.674 31.4126 433.078 31.4642 433.132C32.0515 433.11 32.6386 433.177 33.2056 433.332L33.7737 433.928L31.9806 433.674ZM206.023 424.756C206.023 424.756 206.282 425.026 205.59 425.169C204.899 425.311 203.217 424.848 203.232 424.213C203.246 423.578 203.719 423.748 204.402 423.923C205.02 424.152 205.6 424.469 206.126 424.864L206.023 424.756ZM111.48 439.751L112.441 439.351L113.268 440.217L111.48 439.751ZM-59.4748 140.336L-59.9912 139.794L-58.36 140.204L-59.4748 140.336ZM-182.793 254.236C-184.175 254.521 -185.331 254.176 -185.526 253.431C-185.72 252.685 -184.985 252.914 -184.458 253.033C-183.865 253.151 -183.284 253.325 -182.724 253.551C-182.724 253.551 -182.527 254.19 -182.689 254.345L-182.793 254.236ZM-236.016 305.727L-237.649 305.423L-236.581 305.025L-236.016 305.727ZM-138.575 352.397C-138.575 352.397 -139.171 352.965 -139.279 353.068C-141.173 352.6 -141.377 352.277 -140.106 352.201L-138.575 352.397ZM192.703 360.83C192.703 360.83 193.19 360.366 193.461 360.108C193.731 359.85 194.932 360.566 195.033 360.78C195.133 360.994 194.545 361.245 194.275 361.503C194.004 361.761 193.062 361.315 192.806 360.938L192.703 360.83ZM218.722 115.117L220.256 115.1L219.661 115.668L218.722 115.117ZM15.6194 465.722L14.195 465.529L14.7361 465.013L15.6194 465.722Z" fill="#7D65EF" fill-opacity="0.3"/>
</svg>
